<svg width="21" height="20" viewBox="0 0 21 20" fill="none" xmlns="http://www.w3.org/2000/svg">
<path d="M1.564 5.51C2.39601 3.85324 3.67237 2.46051 5.25043 1.48747C6.82849 0.514427 8.64606 -0.000583569 10.5 4.96231e-07C13.195 4.96231e-07 15.459 0.991001 17.19 2.605L14.323 5.473C13.286 4.482 11.968 3.977 10.5 3.977C7.895 3.977 5.69 5.737 4.905 8.1C4.705 8.7 4.591 9.34 4.591 10C4.591 10.66 4.705 11.3 4.905 11.9C5.691 14.264 7.895 16.023 10.5 16.023C11.845 16.023 12.99 15.668 13.886 15.068C14.4054 14.726 14.8501 14.2822 15.1932 13.7635C15.5363 13.2448 15.7706 12.6619 15.882 12.05H10.5V8.182H19.918C20.036 8.836 20.1 9.518 20.1 10.227C20.1 13.273 19.01 15.837 17.118 17.577C15.464 19.105 13.2 20 10.5 20C9.18663 20.0005 7.88604 19.7422 6.67254 19.2399C5.45905 18.7375 4.35645 18.0009 3.42776 17.0722C2.49907 16.1436 1.7625 15.041 1.26013 13.8275C0.757774 12.614 0.499475 11.3134 0.500001 10C0.500001 8.386 0.886001 6.86 1.564 5.51Z" fill="white"/>
</svg>
